<svg id="Layer_1" data-name="Layer 1" xmlns="http://www.w3.org/2000/svg" viewBox="0 0 792 612"><defs><style>.cls-1{fill:#111;}.cls-2{fill:#e13c30;}</style></defs><path class="cls-1" d="M272.05,280.83H299a2.14,2.14,0,0,1,2.13,2.14v8A2.14,2.14,0,0,1,299,293.1H272.05a2.14,2.14,0,0,1-2.14-2.13v-8A2.14,2.14,0,0,1,272.05,280.83Zm8.9,64.89q-3.9-4.62-3.9-13.69V262.84a2.13,2.13,0,0,1,2.13-2.14h9.33a2.13,2.13,0,0,1,2.13,2.14v69.32a6.57,6.57,0,0,0,1,3.9,3.43,3.43,0,0,0,2.94,1.37H299a2.13,2.13,0,0,1,2.13,2.13v8.66a2.14,2.14,0,0,1-2.13,2.14h-5.74Q284.84,350.36,281,345.72Z"/><path class="cls-1" d="M370.71,280.83a2.13,2.13,0,0,1,2,2.83l-28.48,82.56a20.47,20.47,0,0,1-4.2,7.5,14.78,14.78,0,0,1-6.4,4,31.38,31.38,0,0,1-9.33,1.2h-2.74V365.82h2.74a10.52,10.52,0,0,0,6-1.53,12.38,12.38,0,0,0,3.9-5.27l25.11-76.72a2.15,2.15,0,0,1,2-1.47Z"/><path class="cls-1" d="M399.29,332.16a6.1,6.1,0,0,0,1.1,3.9,3.77,3.77,0,0,0,3.1,1.37h4.27a2.13,2.13,0,0,1,2.13,2.13v8.66a2.13,2.13,0,0,1-2.13,2.14h-5.87q-7.72,0-12-4.8T385.7,332V255.24a2.13,2.13,0,0,1,2.13-2.13h9.33a2.13,2.13,0,0,1,2.13,2.13Z"/><path class="cls-1" d="M427.36,253.11h9.33a2.13,2.13,0,0,1,2.13,2.13v9.33a2.13,2.13,0,0,1-2.13,2.13h-9.33a2.13,2.13,0,0,1-2.14-2.13v-9.33A2.13,2.13,0,0,1,427.36,253.11Zm0,27.72h9.33a2.13,2.13,0,0,1,2.13,2.14v64.92a2.13,2.13,0,0,1-2.13,2.13h-9.33a2.13,2.13,0,0,1-2.14-2.13V283A2.14,2.14,0,0,1,427.36,280.83Z"/><path class="cls-1" d="M472.45,349.82a41.68,41.68,0,0,1-10-3.6,38.5,38.5,0,0,1-7.05-4.64,2.12,2.12,0,0,1-.25-3l5.49-6.76a2.15,2.15,0,0,1,2.91-.37,43.23,43.23,0,0,0,9.5,5.2A30,30,0,0,0,484,338.83q8.06,0,12.1-2.5a8.27,8.27,0,0,0,4-7.5,5.88,5.88,0,0,0-2.2-5,12.48,12.48,0,0,0-5.47-2.24c-2.18-.37-5.24-.72-9.2-1l-1.13,0c-.4,0-.78-.06-1.13-.1a4.89,4.89,0,0,1-.54,0,3.08,3.08,0,0,0-.53,0,53.85,53.85,0,0,1-11.4-2,15.49,15.49,0,0,1-7.76-5.37q-3.11-3.93-3.1-11.27a22.85,22.85,0,0,1,3-12.19,18.17,18.17,0,0,1,8.93-7.3,39.4,39.4,0,0,1,14.86-2.44,51.86,51.86,0,0,1,10.3,1,46.29,46.29,0,0,1,9.37,3,45.76,45.76,0,0,1,6.68,3.64,2.13,2.13,0,0,1,.43,3.12l-5.53,6.71a2.15,2.15,0,0,1-2.76.45,44.19,44.19,0,0,0-8.65-4,31.28,31.28,0,0,0-9.84-1.67q-6.93,0-10.39,2.37a8,8,0,0,0-3.47,7.1,4.81,4.81,0,0,0,2,4.2,11.48,11.48,0,0,0,5,1.86q3,.46,8.53.8a4.61,4.61,0,0,0,.84.07,5.81,5.81,0,0,1,.9.07h.4a1.44,1.44,0,0,1,.4.06,58.75,58.75,0,0,1,12.36,1.94,16.67,16.67,0,0,1,8.57,5.8q3.47,4.32,3.46,12.53c0,5-1.06,9.1-3.2,12.36a19.31,19.31,0,0,1-9.63,7.37Q493.67,351,484,351A52.63,52.63,0,0,1,472.45,349.82Z"/><path class="cls-1" d="M532.41,280.83h9.33a2.13,2.13,0,0,1,2.13,2.14v64.92a2.13,2.13,0,0,1-2.13,2.13h-9.33a2.13,2.13,0,0,1-2.14-2.13V283A2.14,2.14,0,0,1,532.41,280.83ZM571.6,308.1q0-7.34-3.6-11.33t-10.2-4q-6.66,0-10.3,3.53t-3.63,9.93l-1.33-12.66a2.22,2.22,0,0,1,.25-1.27,24.41,24.41,0,0,1,8.05-9.07,20.39,20.39,0,0,1,11.43-3.4,22.47,22.47,0,0,1,12.4,3.3,20.72,20.72,0,0,1,7.83,9.64A38.82,38.82,0,0,1,585.2,308v39.86a2.13,2.13,0,0,1-2.14,2.13h-9.33a2.13,2.13,0,0,1-2.13-2.13Zm41.33,0q0-7.34-3.8-11.33t-10.67-4q-6.33,0-9.8,3.86t-3.46,10.93L582.62,295a2.17,2.17,0,0,1,.18-1.42,26.13,26.13,0,0,1,8.3-9.95,20.13,20.13,0,0,1,11.83-3.77,23.67,23.67,0,0,1,12.76,3.3,20.74,20.74,0,0,1,8.07,9.64A38.07,38.07,0,0,1,626.52,308v39.86a2.13,2.13,0,0,1-2.13,2.13h-9.33a2.13,2.13,0,0,1-2.13-2.13Z"/><path class="cls-1" d="M340.26,320.28l-13.45-38a2.13,2.13,0,0,0-2-1.43h-9.3a2.14,2.14,0,0,0-2,2.88l19.7,53.44a1.07,1.07,0,0,0,2,0l5.06-15.45A2.17,2.17,0,0,0,340.26,320.28Z"/><rect class="cls-2" x="425.22" y="253.11" width="13.6" height="13.6" rx="2.13"/><path class="cls-1" d="M216.76,350a41.74,41.74,0,0,1-10-3.59,39.35,39.35,0,0,1-7-4.65,2.11,2.11,0,0,1-.25-3l5.49-6.76a2.13,2.13,0,0,1,2.91-.36,43.54,43.54,0,0,0,9.49,5.19A30.07,30.07,0,0,0,228.25,339q8.07,0,12.1-2.5a8.25,8.25,0,0,0,4-7.5,5.87,5.87,0,0,0-2.2-5,12.26,12.26,0,0,0-5.46-2.23q-3.27-.57-9.2-1l-1.13,0c-.4,0-.78-.06-1.14-.1a4.71,4.71,0,0,1-.53,0,3.23,3.23,0,0,0-.53,0,53.85,53.85,0,0,1-11.4-2,15.56,15.56,0,0,1-7.77-5.37q-3.09-3.93-3.1-11.26a22.86,22.86,0,0,1,3-12.2,18.2,18.2,0,0,1,8.94-7.3q5.92-2.43,14.86-2.43a51.2,51.2,0,0,1,10.3,1,45.3,45.3,0,0,1,16,6.6,2.12,2.12,0,0,1,.44,3.12L250,297.47a2.13,2.13,0,0,1-2.76.45,43.93,43.93,0,0,0-8.65-4,31.18,31.18,0,0,0-9.83-1.67q-6.93,0-10.4,2.37a8,8,0,0,0-3.46,7.1,4.81,4.81,0,0,0,2,4.2,11.53,11.53,0,0,0,5,1.86c2,.32,4.84.58,8.53.8a4.5,4.5,0,0,0,.83.07,5.63,5.63,0,0,1,.9.07h.4a1.34,1.34,0,0,1,.4.06,58.74,58.74,0,0,1,12.37,1.94,16.6,16.6,0,0,1,8.56,5.8q3.46,4.33,3.47,12.53c0,5-1.07,9.1-3.2,12.36a19.35,19.35,0,0,1-9.63,7.37q-6.43,2.46-16.17,2.46A52.47,52.47,0,0,1,216.76,350Z"/></svg>