<svg id="Layer_1" data-name="Layer 1" xmlns="http://www.w3.org/2000/svg" viewBox="0 0 792 612"><defs><style>.cls-1{fill:#111;}.cls-2{fill:#e13c30;}.cls-3{fill:#eeebe7;}</style></defs><path class="cls-1" d="M333.84,271.6h26.92a2.13,2.13,0,0,1,2.14,2.13v8a2.13,2.13,0,0,1-2.14,2.13H333.84a2.13,2.13,0,0,1-2.14-2.13v-8A2.13,2.13,0,0,1,333.84,271.6Zm8.89,64.89q-3.9-4.64-3.9-13.7V253.6a2.13,2.13,0,0,1,2.14-2.13h9.33a2.13,2.13,0,0,1,2.13,2.13v69.32a6.57,6.57,0,0,0,1,3.9,3.43,3.43,0,0,0,2.94,1.37h4.39a2.13,2.13,0,0,1,2.14,2.13V339a2.13,2.13,0,0,1-2.14,2.13H355Q346.63,341.12,342.73,336.49Z"/><path class="cls-1" d="M432.49,271.6a2.13,2.13,0,0,1,2,2.83L406,357a20,20,0,0,1-4.2,7.5,14.6,14.6,0,0,1-6.39,4,31.41,31.41,0,0,1-9.34,1.2h-2.73V356.58h2.73a10.53,10.53,0,0,0,6-1.53,12.41,12.41,0,0,0,3.9-5.26l25.11-76.72a2.14,2.14,0,0,1,2-1.47Z"/><path class="cls-1" d="M461.08,322.92a6.1,6.1,0,0,0,1.1,3.9,3.77,3.77,0,0,0,3.1,1.37h4.27a2.13,2.13,0,0,1,2.13,2.13V339a2.13,2.13,0,0,1-2.13,2.13h-5.87q-7.73,0-12-4.8t-4.24-13.53V246a2.13,2.13,0,0,1,2.14-2.13H459a2.13,2.13,0,0,1,2.13,2.13Z"/><path class="cls-1" d="M489.14,243.87h9.34a2.13,2.13,0,0,1,2.13,2.13v9.33a2.14,2.14,0,0,1-2.13,2.14h-9.34a2.14,2.14,0,0,1-2.13-2.14V246A2.13,2.13,0,0,1,489.14,243.87Zm0,27.73h9.34a2.13,2.13,0,0,1,2.13,2.13v64.92a2.14,2.14,0,0,1-2.13,2.14h-9.34a2.14,2.14,0,0,1-2.13-2.14V273.73A2.13,2.13,0,0,1,489.14,271.6Z"/><path class="cls-1" d="M534.24,340.59a41.68,41.68,0,0,1-10-3.6,39.07,39.07,0,0,1-7.05-4.65,2.11,2.11,0,0,1-.25-2.95l5.49-6.77a2.14,2.14,0,0,1,2.91-.36,44,44,0,0,0,9.49,5.2,30.32,30.32,0,0,0,10.94,2.13q8.06,0,12.09-2.5a8.26,8.26,0,0,0,4-7.5,5.89,5.89,0,0,0-2.2-5,12.47,12.47,0,0,0-5.47-2.23c-2.18-.38-5.24-.72-9.2-1-.35,0-.73,0-1.13,0s-.78-.05-1.13-.1l-.54,0a4.71,4.71,0,0,0-.53,0,53.79,53.79,0,0,1-11.4-2,15.43,15.43,0,0,1-7.76-5.37q-3.1-3.93-3.1-11.26a22.86,22.86,0,0,1,3-12.2,18.23,18.23,0,0,1,8.93-7.3,39.41,39.41,0,0,1,14.86-2.43,51.2,51.2,0,0,1,10.3,1,45,45,0,0,1,16,6.61,2.12,2.12,0,0,1,.43,3.12L567.44,288a2.14,2.14,0,0,1-2.75.45,43.49,43.49,0,0,0-8.66-4,31.16,31.16,0,0,0-9.83-1.66q-6.93,0-10.4,2.36a8,8,0,0,0-3.46,7.1,4.81,4.81,0,0,0,2,4.2,11.53,11.53,0,0,0,5,1.87c2,.31,4.84.57,8.53.8a5.73,5.73,0,0,0,.84.06,7.38,7.38,0,0,1,.9.07h.39a1.09,1.09,0,0,1,.4.07,58.8,58.8,0,0,1,12.37,1.93,16.66,16.66,0,0,1,8.56,5.8q3.48,4.33,3.47,12.53,0,7.47-3.2,12.37a19.29,19.29,0,0,1-9.63,7.36q-6.43,2.46-16.16,2.47A52.57,52.57,0,0,1,534.24,340.59Z"/><path class="cls-1" d="M594.19,271.6h9.34a2.13,2.13,0,0,1,2.13,2.13v64.92a2.14,2.14,0,0,1-2.13,2.14h-9.34a2.14,2.14,0,0,1-2.13-2.14V273.73A2.13,2.13,0,0,1,594.19,271.6Zm39.2,27.26q0-7.33-3.6-11.33t-10.2-4q-6.66,0-10.3,3.53T605.66,297l-1.33-12.66a2.25,2.25,0,0,1,.24-1.27,24.4,24.4,0,0,1,8.06-9.06,20.31,20.31,0,0,1,11.43-3.4,22.42,22.42,0,0,1,12.39,3.3,20.7,20.7,0,0,1,7.84,9.63,38.82,38.82,0,0,1,2.7,15.26v39.86a2.14,2.14,0,0,1-2.14,2.14h-9.33a2.13,2.13,0,0,1-2.13-2.14Zm41.33,0q0-7.33-3.8-11.33t-10.67-4q-6.33,0-9.8,3.87T647,298.33l-2.59-12.6a2.26,2.26,0,0,1,.19-1.42,26.28,26.28,0,0,1,8.3-9.95,20.12,20.12,0,0,1,11.83-3.76,23.67,23.67,0,0,1,12.76,3.3,20.82,20.82,0,0,1,8.07,9.63,38.07,38.07,0,0,1,2.76,15.26v39.86a2.13,2.13,0,0,1-2.13,2.14h-9.33a2.13,2.13,0,0,1-2.13-2.14Z"/><rect class="cls-1" x="110.77" y="242.35" width="127.3" height="127.3" rx="5"/><path class="cls-1" d="M402,311.05,388.6,273a2.15,2.15,0,0,0-2-1.42h-9.3a2.13,2.13,0,0,0-2,2.87L395,327.91a1.06,1.06,0,0,0,2,0l5.06-15.45A2.08,2.08,0,0,0,402,311.05Z"/><rect class="cls-2" x="487.01" y="243.87" width="13.6" height="13.6" rx="2.13"/><circle class="cls-2" cx="174.41" cy="311.32" r="4.32"/><path class="cls-3" d="M177.6,302.75h-6.37v-.55a15.43,15.43,0,0,1,8.87-13.86,13,13,0,1,0-18.65-11.65h-6.36a19.33,19.33,0,1,1,27.8,17.37,9.12,9.12,0,0,0-5.29,8.14Z"/><path class="cls-3" d="M229.36,346.59l-46-33.22-4.29,5.93,38.8,28H131l24.7-17.68-4.26-6-32,22.89a4.45,4.45,0,0,0,2.57,8.07H226.77a4.44,4.44,0,0,0,2.59-8.05Z"/><path class="cls-1" d="M278.54,340.79a41.84,41.84,0,0,1-10-3.6,39.35,39.35,0,0,1-7-4.65,2.11,2.11,0,0,1-.26-3l5.5-6.76a2.13,2.13,0,0,1,2.9-.37,44.32,44.32,0,0,0,9.5,5.2A30.27,30.27,0,0,0,290,329.79q8.07,0,12.1-2.5a8.25,8.25,0,0,0,4-7.5,5.87,5.87,0,0,0-2.2-5,12.43,12.43,0,0,0-5.46-2.23q-3.27-.57-9.2-1c-.36,0-.73,0-1.13,0s-.78-.05-1.14-.1a4.71,4.71,0,0,1-.53,0l-.53,0a53.79,53.79,0,0,1-11.4-2,15.5,15.5,0,0,1-7.77-5.37q-3.09-3.93-3.1-11.26a22.86,22.86,0,0,1,3-12.2,18.27,18.27,0,0,1,8.93-7.3,39.47,39.47,0,0,1,14.87-2.43,51.2,51.2,0,0,1,10.3,1,46.4,46.4,0,0,1,9.36,3,44.84,44.84,0,0,1,6.68,3.64,2.12,2.12,0,0,1,.44,3.12l-5.54,6.71a2.16,2.16,0,0,1-2.76.45,44,44,0,0,0-8.65-4,31.2,31.2,0,0,0-9.83-1.66q-6.93,0-10.4,2.36a8,8,0,0,0-3.47,7.1,4.81,4.81,0,0,0,2,4.2,11.41,11.41,0,0,0,5,1.87q3,.47,8.53.8a5.59,5.59,0,0,0,.83.06,7.09,7.09,0,0,1,.9.07h.4a1.12,1.12,0,0,1,.4.07A58.9,58.9,0,0,1,307,301.46a16.66,16.66,0,0,1,8.56,5.8q3.46,4.33,3.47,12.53,0,7.47-3.2,12.37a19.34,19.34,0,0,1-9.63,7.36Q299.78,342,290,342A52.63,52.63,0,0,1,278.54,340.79Z"/></svg>