<svg id="Layer_1" data-name="Layer 1" xmlns="http://www.w3.org/2000/svg" viewBox="0 0 792 612"><defs><style>.cls-1{fill:#111;}.cls-2{fill:#e13c30;}.cls-3{fill:#eeebe7;}</style></defs><rect class="cls-1" x="247.35" y="162.67" width="297.29" height="297.29" rx="5"/><circle class="cls-2" cx="396" cy="323.74" r="10.08"/><path class="cls-3" d="M403.44,303.73H388.57v-1.29c0-13.72,7.94-26.12,20.71-32.36a30.28,30.28,0,1,0-43.55-27.22H350.86a45.15,45.15,0,1,1,64.94,40.57c-7.63,3.73-12.36,11-12.36,19Z"/><path class="cls-3" d="M524.32,406.1l-107.4-77.57-10,13.86,90.6,65.43H294.64l57.67-41.3-9.95-13.91-74.62,53.45a10.39,10.39,0,0,0,6,18.86H518.27a10.39,10.39,0,0,0,6.05-18.82Z"/></svg>